<?xml version="1.0" encoding="UTF-8" standalone="no"?>
<!DOCTYPE svg PUBLIC "-//W3C//DTD SVG 1.1//EN" "http://www.w3.org/Graphics/SVG/1.1/DTD/svg11.dtd">
<svg version="1.1" xmlns="http://www.w3.org/2000/svg" xmlns:xlink="http://www.w3.org/1999/xlink" preserveAspectRatio="xMidYMid meet" viewBox="121.29885057471267 101.61876998621003 123.54022988505753 142.07088518620387" width="120" height="138.6"><defs><path d="M221.84 130.34C232.88 130.34 241.84 139.3 241.84 150.34C241.84 165.2 241.84 189.75 241.84 204.6C241.84 215.64 232.88 224.6 221.84 224.6C201.93 224.6 162.21 224.6 142.3 224.6C131.25 224.6 122.3 215.64 122.3 204.6C122.3 189.75 122.3 165.2 122.3 150.34C122.3 139.3 131.25 130.34 142.3 130.34C162.21 130.34 201.93 130.34 221.84 130.34Z" id="a1kX7DaS2l"></path><path d="M210.38 135.52C224.26 135.52 235.52 146.77 235.52 160.65C235.52 172.18 235.52 181.62 235.52 193.14C235.52 207.02 224.26 218.28 210.38 218.28C194.03 218.28 170.11 218.28 153.76 218.28C139.87 218.28 128.62 207.02 128.62 193.14C128.62 181.62 128.62 172.18 128.62 160.65C128.62 146.77 139.87 135.52 153.76 135.52C170.11 135.52 194.03 135.52 210.38 135.52Z" id="b3pqDyDKum"></path><path d="M152.18 222.3L165.98 222.3L165.98 240.69L152.18 240.69L152.18 222.3Z" id="c4DB1Tl5cq"></path><path d="M196.32 222.3L210.11 222.3L210.11 240.69L196.32 240.69L196.32 222.3Z" id="b28z1U4i9Y"></path><path d="M208.32 135.52L198.04 130.38L211.91 102.62L222.19 107.76L208.32 135.52Z" id="e1pnwYZZwr"></path><path d="M171.33 130.17L161.13 135.46L146.83 107.91L157.03 102.62L171.33 130.17Z" id="apqHDZGPk"></path><path d="M165.98 160.8C165.98 164.29 162.89 167.13 159.08 167.13C155.27 167.13 152.18 164.29 152.18 160.8C152.18 157.32 155.27 154.48 159.08 154.48C162.89 154.48 165.98 157.32 165.98 160.8Z" id="adNdJXogV"></path><path d="M217.01 173.45C217.01 176.94 213.92 179.77 210.11 179.77C206.31 179.77 203.22 176.94 203.22 173.45C203.22 169.96 206.31 167.13 210.11 167.13C213.92 167.13 217.01 169.96 217.01 173.45Z" id="bjNZclyu4"></path><path d="M165.98 191.26L196.32 191.26L196.32 202.76L165.98 202.76L165.98 191.26Z" id="b8eQpyghJo"></path></defs><g><g><use xlink:href="#a1kX7DaS2l" opacity="1" fill="#000000" fill-opacity="1"></use></g><g><use xlink:href="#b3pqDyDKum" opacity="1" fill="#ffffff" fill-opacity="1"></use></g><g><use xlink:href="#c4DB1Tl5cq" opacity="1" fill="#000000" fill-opacity="1"></use></g><g><use xlink:href="#b28z1U4i9Y" opacity="1" fill="#000000" fill-opacity="1"></use></g><g><use xlink:href="#e1pnwYZZwr" opacity="1" fill="#000000" fill-opacity="1"></use></g><g><use xlink:href="#apqHDZGPk" opacity="1" fill="#000000" fill-opacity="1"></use></g><g><use xlink:href="#adNdJXogV" opacity="1" fill="#000000" fill-opacity="1"></use></g><g><use xlink:href="#bjNZclyu4" opacity="1" fill="#000000" fill-opacity="1"></use></g><g><use xlink:href="#b8eQpyghJo" opacity="1" fill="#000000" fill-opacity="1"></use></g></g></svg>